Coordinates
version=1
nRows=7
nColumns=46
inDegrees=yes

Units are S.I. units (second, meters, Newtons, ...)
Angles are in degrees.

endheader
time	pelvis_tilt	pelvis_list	pelvis_rotation	pelvis_tx	pelvis_ty	pelvis_tz	bb_angle	bb_tx	bb_ty	bb_tz	hip_flexion_r	hip_adduction_r	hip_rotation_r	knee_angle_r	knee_angle_r_beta	ankle_angle_r	subtalar_angle_r	mtp_angle_r	crank_angle_r	hip_flexion_l	hip_adduction_l	hip_rotation_l	knee_angle_l	knee_angle_l_beta	ankle_angle_l	subtalar_angle_l	mtp_angle_l	crank_angle_l	lumbar_extension	lumbar_bending	lumbar_rotation	arm_flex_r	arm_add_r	arm_rot_r	elbow_flex_r	pro_sup_r	wrist_flex_r	wrist_dev_r	arm_flex_l	arm_add_l	arm_rot_l	elbow_flex_l	pro_sup_l	wrist_flex_l	wrist_dev_l
      5.00000000	    -13.86015379	     -0.51780126	     -4.12712880	      0.20098855	      1.04329241	     -0.31943316	      0.00000000	      0.50000000	      0.00000000	      0.25000000	     67.27076821	     -2.26106452	      1.48052148	     63.53572563	      1.10890760	      2.26403283	     -6.16307489	      0.00000000	      0.00000000	     64.72173698	     -8.56036853	      4.81509739	     99.70600932	      1.74019815	    -11.09313399	     -3.88133016	      0.00000000	      0.00000000	    -67.21572107	     -2.59442106	      1.10973456	     89.51355518	    -13.07407815	     29.76106567	     59.87779111	     29.82674422	      0.00000000	      0.00000000	     85.32844654	    -15.73559488	     23.53507199	     63.97245290	     41.53974473	      0.00000000	      0.00000000
      5.00500000	    -13.58291651	     -0.56412706	     -3.90023205	      0.20196599	      1.04228829	     -0.31913375	      0.00000000	      0.50000000	      0.00000000	      0.25000000	     65.64903391	     -2.45986880	      1.26665128	     61.73239745	      1.07743359	      0.85029336	     -6.17853869	      0.00000000	      0.00000000	     65.85850511	     -8.57317313	      5.20871900	    102.00556953	      1.78033304	    -10.10377991	     -3.40026773	      0.00000000	      0.00000000	    -67.56158437	     -2.63573808	      1.19610240	     89.52206503	    -13.73172812	     29.99853706	     60.26073329	     29.95366353	      0.00000000	      0.00000000	     85.64182177	    -15.73144702	     24.18393329	     64.38489077	     41.69228697	      0.00000000	      0.00000000
      5.01000000	    -13.34014922	     -0.24093943	     -3.52696583	      0.20294145	      1.04184013	     -0.31914829	      0.00000000	      0.50000000	      0.00000000	      0.25000000	     64.07169936	     -3.01900510	      1.33435690	     59.95043366	      1.04633246	     -0.46742179	     -5.86735261	      0.00000000	      0.00000000	     66.92361747	     -8.16427364	      5.27070732	    104.04948280	      1.81600606	     -9.29316755	     -3.38231837	      0.00000000	      0.00000000	    -67.91230687	     -2.74413190	      0.86354544	     89.52423322	    -14.40617142	     30.16202438	     60.72854458	     30.09202218	      0.00000000	      0.00000000	     85.94876941	    -15.68534334	     24.84801336	     64.70561448	     41.82904720	      0.00000000	      0.00000000
      5.01500000	    -13.31428897	      0.20284356	     -3.24242807	      0.20400326	      1.04148744	     -0.31913734	      0.00000000	      0.50000000	      0.00000000	      0.25000000	     62.70888659	     -3.58752520	      1.54355693	     58.15374275	      1.01497428	     -1.74955992	     -5.21159119	      0.00000000	      0.00000000	     68.15590276	     -7.74309718	      5.17210931	    105.95041457	      1.84918358	     -8.51742909	     -3.59633374	      0.00000000	      0.00000000	    -68.01973851	     -2.95418985	      0.35728309	     89.50606068	    -14.68861608	     30.12106551	     60.78478925	     30.11076791	      0.00000000	      0.00000000	     86.09908411	    -15.57366543	     24.99181968	     64.81605664	     41.86391334	      0.00000000	      0.00000000
      5.02000000	    -13.23218565	      0.53034870	     -2.87379618	      0.20503075	      1.04160057	     -0.31912958	      0.00000000	      0.50000000	      0.00000000	      0.25000000	     61.22280367	     -4.14599722	      1.66110023	     56.34229936	      0.98335863	     -3.21903700	     -4.58530777	      0.00000000	      0.00000000	     69.36165104	     -7.35622108	      5.19165739	    107.74866013	      1.88056888	     -7.64458709	     -3.66015306	      0.00000000	      0.00000000	    -68.23384745	     -3.01839029	     -0.03643122	     89.50835670	    -14.97221450	     30.09323529	     60.82349957	     30.14424737	      0.00000000	      0.00000000	     86.25289201	    -15.43203367	     25.14882075	     65.02864395	     41.91840168	      0.00000000	      0.00000000
      5.02500000	    -12.97710954	      0.61469542	     -2.40332198	      0.20589647	      1.04244520	     -0.31918472	      0.00000000	      0.50000000	      0.00000000	      0.25000000	     59.39997704	     -4.60087755	      1.51003165	     54.39157369	      0.94931205	     -4.79013155	     -4.41310566	      0.00000000	      0.00000000	     70.40746639	     -6.97752646	      5.54458738	    109.43190264	      1.90994701	     -6.63266929	     -3.21320930	      0.00000000	      0.00000000	    -68.67563709	     -2.95375140	     -0.25177195	     89.50152093	    -15.43984710	     30.20893431	     61.00021742	     30.22210556	      0.00000000	      0.00000000	     86.47742467	    -15.30563435	     25.58814269	     65.44298860	     42.03680946	      0.00000000	      0.00000000
      5.03000000	    -13.10365750	      1.06407692	     -2.00456086	      0.20655245	      1.04304607	     -0.31923058	      0.00000000	      0.50000000	      0.00000000	      0.25000000	     58.07201294	     -5.22030286	      1.73418179	     52.45835795	      0.91557107	     -6.19142408	     -3.73978190	      0.00000000	      0.00000000	     71.79687457	     -6.47237143	      5.40211684	    110.92286168	      1.93596915	     -5.82291366	     -3.37857174	      0.00000000	      0.00000000	    -68.71779081	     -3.07118026	     -0.83094575	     89.48767844	    -15.62457250	     30.20212311	     61.08559194	     30.26359968	      0.00000000	      0.00000000	     86.64100475	    -15.15868592	     25.69420291	     65.57443012	     42.07042897	      0.00000000	      0.00000000
